<svg style='display: none;'  xmlns="http://www.w3.org/2000/svg">
    <symbol id="arrow-down" viewBox="0 0 9 6">
        <path d="M8.90479 1.11105C8.9606 1.16685 8.9885 1.23103 8.9885 1.30357C8.9885 1.37612 8.9606 1.44029 8.90479 1.49609L5.00412 5.39676C4.94832 5.45257 4.88415 5.48047 4.8116 5.48047C4.73906 5.48047 4.67488 5.45257 4.61908 5.39676L0.71841 1.49609C0.662606 1.44029 0.634705 1.37612 0.634705 1.30357C0.634705 1.23103 0.662606 1.16685 0.71841 1.11105L1.13694 0.692522C1.19274 0.636718 1.25691 0.608817 1.32946 0.608817C1.402 0.608817 1.46618 0.636718 1.52198 0.692522L4.8116 3.98214L8.10122 0.692522C8.15703 0.636718 8.2212 0.608817 8.29375 0.608817C8.36629 0.608817 8.43046 0.636718 8.48627 0.692522L8.90479 1.11105Z"/>
    </symbol>
    <symbol id="arrow-left" viewBox="0 0 5 9">
        <path d="M4.89844 1.25C4.89844 1.17969 4.86719 1.11719 4.82031 1.07031L4.42969 0.679687C4.38281 0.632812 4.3125 0.601562 4.25 0.601562C4.1875 0.601562 4.11719 0.632812 4.07031 0.679687L0.429688 4.32031C0.382813 4.36719 0.351563 4.4375 0.351563 4.5C0.351563 4.5625 0.382813 4.63281 0.429688 4.67969L4.07031 8.32031C4.11719 8.36719 4.1875 8.39844 4.25 8.39844C4.3125 8.39844 4.38281 8.36719 4.42969 8.32031L4.82031 7.92969C4.86719 7.88281 4.89844 7.8125 4.89844 7.75C4.89844 7.6875 4.86719 7.61719 4.82031 7.57031L1.75 4.5L4.82031 1.42969C4.86719 1.38281 4.89844 1.3125 4.89844 1.25Z"/>
    </symbol>
    <symbol id="arrow-right" viewBox="0 0 5 9">
        <path d="M4.89844 1.25C4.89844 1.17969 4.86719 1.11719 4.82031 1.07031L4.42969 0.679687C4.38281 0.632812 4.3125 0.601562 4.25 0.601562C4.1875 0.601562 4.11719 0.632812 4.07031 0.679687L0.429688 4.32031C0.382813 4.36719 0.351563 4.4375 0.351563 4.5C0.351563 4.5625 0.382813 4.63281 0.429688 4.67969L4.07031 8.32031C4.11719 8.36719 4.1875 8.39844 4.25 8.39844C4.3125 8.39844 4.38281 8.36719 4.42969 8.32031L4.82031 7.92969C4.86719 7.88281 4.89844 7.8125 4.89844 7.75C4.89844 7.6875 4.86719 7.61719 4.82031 7.57031L1.75 4.5L4.82031 1.42969C4.86719 1.38281 4.89844 1.3125 4.89844 1.25Z"/>
    </symbol>
</svg>